<svg width="127.56" height="55.783" version="1.1" viewBox="0 0 127.56 55.783" xmlns="http://www.w3.org/2000/svg">
 <g transform="translate(17.476 -14.384)" fill="#7ce0fc" fill-opacity=".50314">
  <path d="m20.197 40.367c-5.7766 5.0635-16.983 6.2239-25.231 2.3778-0.76094-0.50859-2.5306-0.32533-2.9485 0.30532-0.32452 0.26856-0.41886 0.63076-0.31606 0.97314 0.1028 0.34238 0.59819 0.64292 0.86357 0.85039 10.061 4.4808 23.891 3.2836 30.967-2.8542l-0.06842-0.22787c5.845-4.8356 16.854-5.9756 24.873-2.2232 1.1539 0.4679 2.5297 0.32544 2.9485-0.30532 0.32452-0.26856 0.41886-0.63076 0.31623-0.97256-0.10263-0.3418-0.59819-0.64292-0.86357-0.85039-9.6678-4.5215-23.464-3.2104-30.539 2.9274z"/>
  <path d="m36.182 42.945c-3.9314 0.4071-6.8716 1.4164-9.1108 3.4111l-0.64904 0.53712c-3.8286 3.4515-10.033 5.7393-16.786 6.2035-6.8809 0.71252-13.557-0.5939-19.164-3.0682-1.1539-0.4679-2.5297-0.32544-2.9485 0.30532l0.27367 0.91148c0.10263 0.3418 0.59819 0.64292 0.86357 0.85039 6.5657 2.9625 14.455 4.2607 22.318 3.4465 7.9321-0.58643 14.427-3.2567 19.461-7.4203l0.64904-0.53712c1.4618-1.2087 3.615-2.1371 6.3666-2.422 2.7516-0.28493 4.9235 0.19503 7.4626 1.2249 1.1539 0.4679 2.5297 0.32544 2.9495-0.30543 0.32452-0.26856 0.41787-0.63066 0.31524-0.97246-0.10263-0.3418-0.59819-0.64292-0.86276-0.85107-3.3942-1.1757-7.2065-1.7214-11.138-1.3143z"/>
  <path d="m55.3 30.384c-6.5647-2.9626-14.651-4.2404-22.318-3.4465-7.6667 0.7939-14.427 3.2567-19.461 7.4203l-0.64904 0.53712c-1.4618 1.2087-3.615 2.1371-6.3675 2.4221-2.7525 0.28503-4.7607-0.32936-7.2656-1.2453-1.1539-0.4679-2.5306-0.32533-2.9485 0.30532-0.32452 0.26856-0.41886 0.63076-0.31623 0.97256 0.10263 0.3418 0.59819 0.64292 0.86357 0.85039 3.2649 1.4247 6.881 1.99 10.419 1.6236 3.9314-0.4071 6.8716-1.4164 9.1108-3.4111l0.32452-0.26856s0.39294-0.04069 0.32452-0.26856c3.8286-3.4515 10.033-5.7393 16.717-6.4314 6.8799-0.71242 13.557 0.5939 18.771 3.1089 1.1539 0.4679 2.5297 0.32544 2.9485-0.30532 0.32452-0.26856 0.41886-0.63076 0.31623-0.97256 0.29031-0.38249-0.20525-0.68361-0.47063-0.89108z"/>
 </g>
 <circle cx="96.89" cy="27.891" r="4.5758" fill="#61dafb" stroke-width="2.2321"/>
 <g transform="matrix(2.2321 0 0 2.2321 96.89 27.891)" fill="none" stroke="#61dafb">
  <ellipse rx="11" ry="4.2"/>
  <ellipse transform="rotate(60)" rx="11" ry="4.2"/>
  <ellipse transform="rotate(120)" rx="11" ry="4.2"/>
 </g>
</svg>
